<svg xmlns="http://www.w3.org/2000/svg" width="1200" height="630" viewBox="0 0 1200 630">
  <defs>
    <linearGradient id="grid" x1="0" y1="0" x2="1" y2="1">
      <stop offset="0" stop-color="#0a0a0d"/>
      <stop offset="1" stop-color="#040406"/>
    </linearGradient>
    <pattern id="dots" x="0" y="0" width="40" height="40" patternUnits="userSpaceOnUse">
      <circle cx="0" cy="0" r="1" fill="#ffffff" opacity="0.05"/>
    </pattern>
    <radialGradient id="sunglow" cx="0.5" cy="0.5" r="0.5">
      <stop offset="0" stop-color="#c8ff5e" stop-opacity="0.10"/>
      <stop offset="0.5" stop-color="#c8ff5e" stop-opacity="0.03"/>
      <stop offset="1" stop-color="#c8ff5e" stop-opacity="0"/>
    </radialGradient>
    <linearGradient id="italic-lime" x1="0" y1="0" x2="0" y2="1">
      <stop offset="0" stop-color="#e8ffb0"/>
      <stop offset="0.5" stop-color="#c8ff5e"/>
      <stop offset="1" stop-color="#8fbf2e"/>
    </linearGradient>
  </defs>

  <rect width="1200" height="630" fill="url(#grid)"/>
  <rect width="1200" height="630" fill="url(#dots)"/>

  <circle cx="950" cy="315" r="240" fill="url(#sunglow)"/>
  <circle cx="950" cy="315" r="135" fill="none" stroke="#c8ff5e" stroke-width="1.5" opacity="0.55"/>
  <circle cx="950" cy="315" r="160" fill="none" stroke="#c8ff5e" stroke-width="0.5" opacity="0.18"/>

  <rect x="0" y="0" width="1200" height="36" fill="#000000"/>
  <rect x="0" y="594" width="1200" height="36" fill="#000000"/>

  <g transform="translate(80,80)">
    <circle cx="0" cy="-6" r="5" fill="#c8ff5e"/>
    <text x="14" y="0" font-family="Geist Mono, ui-monospace, monospace" font-size="16" fill="#f5f5f5" letter-spacing="3">B A H R I . S T U D I O</text>
    <text x="14" y="22" font-family="Geist Mono, ui-monospace, monospace" font-size="11" fill="#6b6b75" letter-spacing="4">A PAID MEDIA STUDIO · PARIS</text>
  </g>

  <g transform="translate(80,240)">
    <text x="0" y="0" font-family="Inter, system-ui, sans-serif" font-size="68" font-weight="200" fill="#fafafa" letter-spacing="-2">Read what your</text>
    <text x="0" y="86" font-family="Inter, system-ui, sans-serif" font-style="italic" font-weight="400" font-size="80" fill="url(#italic-lime)" letter-spacing="-2">data really says.</text>
  </g>

  <line x1="80" y1="430" x2="200" y2="430" stroke="#c8ff5e" stroke-width="2"/>

  <g transform="translate(80,470)">
    <text x="0" y="0" font-family="Inter, system-ui, sans-serif" font-size="20" font-weight="300" fill="#a8aab0" letter-spacing="0.2">Google · Meta · LinkedIn · UX/UI · Tracking that survives ad blockers.</text>
  </g>

  <g transform="translate(80,520)" font-family="Geist Mono, ui-monospace, monospace" font-size="14" letter-spacing="3">
    <text x="0" y="0" fill="#c8ff5e">47×</text>
    <text x="40" y="0" fill="#6b6b75">PEAK ROAS</text>
    <text x="200" y="0" fill="#c8ff5e">€100K</text>
    <text x="260" y="0" fill="#6b6b75">MONTHLY · SCALED</text>
    <text x="460" y="0" fill="#c8ff5e">9 YRS</text>
    <text x="510" y="0" fill="#6b6b75">IN THE TRENCHES</text>
  </g>

  <g transform="translate(80,570)">
    <rect x="0" y="-22" width="280" height="42" rx="21" fill="none" stroke="#c8ff5e" stroke-width="1.5" opacity="0.7"/>
    <rect x="0" y="-22" width="280" height="42" rx="21" fill="#c8ff5e" opacity="0.08"/>
    <text x="140" y="5" font-family="Geist Mono, ui-monospace, monospace" font-size="12" font-weight="500" fill="#c8ff5e" text-anchor="middle" letter-spacing="3">BOOK THE 15-MIN AUDIT  →</text>
  </g>

  <g transform="translate(1100,570)" font-family="Geist Mono, ui-monospace, monospace" font-size="11" fill="#6b6b75">
    <text x="0" y="0" letter-spacing="3" text-anchor="end">EN · FR · AR</text>
  </g>

  <text x="600" y="22" font-family="Geist Mono, ui-monospace, monospace" font-size="9" fill="#3a3a3f" letter-spacing="5" text-anchor="middle">PRESENTED IN 2.40 : 1</text>
</svg>
